<?xml version="1.0" standalone="no"?>
<svg xmlns:xlink="http://www.w3.org/1999/xlink" id="wave" style="transform:rotate(180deg); transition: 0.3s" viewBox="0 0 1440 490" version="1.1" xmlns="http://www.w3.org/2000/svg"><defs><linearGradient id="sw-gradient-0" x1="0" x2="0" y1="1" y2="0"><stop stop-color="rgba(33, 212, 253, 1)" offset="0%"/><stop stop-color="rgba(183, 33, 255, 1)" offset="100%"/></linearGradient></defs><path style="transform:translate(0, 0px); opacity:1" fill="url(#sw-gradient-0)" d="M0,392L24,359.3C48,327,96,261,144,236.8C192,212,240,229,288,196C336,163,384,82,432,49C480,16,528,33,576,106.2C624,180,672,310,720,343C768,376,816,310,864,253.2C912,196,960,147,1008,147C1056,147,1104,196,1152,204.2C1200,212,1248,180,1296,163.3C1344,147,1392,147,1440,130.7C1488,114,1536,82,1584,114.3C1632,147,1680,245,1728,245C1776,245,1824,147,1872,138.8C1920,131,1968,212,2016,236.8C2064,261,2112,229,2160,245C2208,261,2256,327,2304,294C2352,261,2400,131,2448,81.7C2496,33,2544,65,2592,122.5C2640,180,2688,261,2736,245C2784,229,2832,114,2880,57.2C2928,0,2976,0,3024,0C3072,0,3120,0,3168,16.3C3216,33,3264,65,3312,138.8C3360,212,3408,327,3432,383.8L3456,441L3456,490L3432,490C3408,490,3360,490,3312,490C3264,490,3216,490,3168,490C3120,490,3072,490,3024,490C2976,490,2928,490,2880,490C2832,490,2784,490,2736,490C2688,490,2640,490,2592,490C2544,490,2496,490,2448,490C2400,490,2352,490,2304,490C2256,490,2208,490,2160,490C2112,490,2064,490,2016,490C1968,490,1920,490,1872,490C1824,490,1776,490,1728,490C1680,490,1632,490,1584,490C1536,490,1488,490,1440,490C1392,490,1344,490,1296,490C1248,490,1200,490,1152,490C1104,490,1056,490,1008,490C960,490,912,490,864,490C816,490,768,490,720,490C672,490,624,490,576,490C528,490,480,490,432,490C384,490,336,490,288,490C240,490,192,490,144,490C96,490,48,490,24,490L0,490Z"/></svg>