<?xml version="1.0" standalone="no"?>
<svg xmlns:xlink="http://www.w3.org/1999/xlink" id="wave" style="transform:rotate(0deg); transition: 0.3s" viewBox="0 0 1440 490" version="1.1" xmlns="http://www.w3.org/2000/svg"><defs><linearGradient id="sw-gradient-0" x1="0" x2="0" y1="1" y2="0"><stop stop-color="rgba(33, 212, 253, 1)" offset="0%"/><stop stop-color="rgba(183, 33, 255, 1)" offset="100%"/></linearGradient></defs><path style="transform:translate(0, 0px); opacity:1" fill="url(#sw-gradient-0)" d="M0,49L24,65.3C48,82,96,114,144,171.5C192,229,240,310,288,359.3C336,408,384,425,432,400.2C480,376,528,310,576,302.2C624,294,672,343,720,367.5C768,392,816,392,864,334.8C912,278,960,163,1008,114.3C1056,65,1104,82,1152,98C1200,114,1248,131,1296,163.3C1344,196,1392,245,1440,245C1488,245,1536,196,1584,147C1632,98,1680,49,1728,57.2C1776,65,1824,131,1872,179.7C1920,229,1968,261,2016,245C2064,229,2112,163,2160,171.5C2208,180,2256,261,2304,285.8C2352,310,2400,278,2448,269.5C2496,261,2544,278,2592,310.3C2640,343,2688,392,2736,408.3C2784,425,2832,408,2880,367.5C2928,327,2976,261,3024,228.7C3072,196,3120,196,3168,220.5C3216,245,3264,294,3312,310.3C3360,327,3408,310,3432,302.2L3456,294L3456,490L3432,490C3408,490,3360,490,3312,490C3264,490,3216,490,3168,490C3120,490,3072,490,3024,490C2976,490,2928,490,2880,490C2832,490,2784,490,2736,490C2688,490,2640,490,2592,490C2544,490,2496,490,2448,490C2400,490,2352,490,2304,490C2256,490,2208,490,2160,490C2112,490,2064,490,2016,490C1968,490,1920,490,1872,490C1824,490,1776,490,1728,490C1680,490,1632,490,1584,490C1536,490,1488,490,1440,490C1392,490,1344,490,1296,490C1248,490,1200,490,1152,490C1104,490,1056,490,1008,490C960,490,912,490,864,490C816,490,768,490,720,490C672,490,624,490,576,490C528,490,480,490,432,490C384,490,336,490,288,490C240,490,192,490,144,490C96,490,48,490,24,490L0,490Z"/></svg>